<svg width="272" height="156" viewBox="0 0 272 156" fill="none" xmlns="http://www.w3.org/2000/svg">
<path d="M137.485 155.917C130.761 155.917 125.137 153.105 120.614 147.481C116.09 141.857 113.829 134.155 113.829 124.375C113.829 119.362 114.379 113.738 115.479 107.503C116.579 101.146 117.863 94.727 119.33 88.248C120.797 81.768 122.081 75.717 123.181 70.093C124.282 64.347 124.832 59.579 124.832 55.789C124.832 53.099 124.465 51.021 123.731 49.554C122.998 47.964 121.653 47.17 119.697 47.17C118.23 47.17 116.518 47.842 114.562 49.187C112.606 50.532 111.139 53.16 110.161 57.072L108.327 56.339C108.327 45.825 110.711 37.511 115.479 31.398C120.369 25.286 126.91 22.229 135.101 22.229C142.803 22.229 148.122 24.735 151.056 29.748C154.112 34.761 155.64 41.057 155.64 48.637C155.64 54.26 155.029 60.251 153.807 66.608C152.706 72.966 151.423 79.323 149.955 85.68C148.488 91.916 147.144 97.723 145.921 103.102C144.821 108.481 144.271 112.944 144.271 116.489C144.271 121.746 145.615 124.375 148.305 124.375C149.894 124.375 152.034 123.274 154.723 121.074C157.413 118.751 160.225 115.633 163.159 111.721C166.216 107.687 169.15 103.163 171.962 98.151C174.774 93.016 177.158 87.637 179.114 82.013C178.869 79.323 178.686 76.756 178.564 74.311C178.441 71.743 178.38 69.481 178.38 67.525C178.38 57.745 179.297 49.859 181.131 43.869C183.087 37.878 185.532 33.477 188.466 30.665C191.4 27.853 194.396 26.447 197.452 26.447C201.731 26.447 205.582 28.831 209.005 33.599C212.429 38.245 214.14 44.602 214.14 52.671C214.14 57.684 213.223 63.307 211.389 69.543C209.556 75.655 206.499 82.196 202.22 89.165C201.853 99.679 203.015 108.176 205.705 114.655C208.394 121.135 211.756 124.375 215.791 124.375C218.358 124.375 221.109 123.091 224.043 120.524C227.099 117.834 229.911 114.166 232.479 109.521C235.046 104.753 237.124 99.251 238.714 93.016C240.425 86.781 241.281 80.118 241.281 73.027C241.281 68.87 240.976 64.53 240.364 60.007C239.875 55.483 239.203 51.143 238.347 46.986C237.614 42.829 236.819 39.406 235.963 36.717C235.963 34.638 236.819 32.56 238.53 30.482C240.364 28.281 242.687 26.447 245.499 24.98C248.311 23.391 251.184 22.596 254.118 22.596C257.052 22.596 259.864 23.635 262.554 25.714C265.244 27.792 267.444 31.46 269.156 36.717C270.867 41.851 271.723 49.187 271.723 58.723C271.723 72.049 270.012 84.58 266.588 96.317C263.165 107.931 258.519 118.201 252.651 127.125C246.905 136.05 240.548 143.08 233.579 148.215C226.61 153.227 219.52 155.734 212.306 155.734C205.949 155.734 200.692 153.777 196.535 149.865C192.379 145.953 189.139 140.696 186.816 134.094C184.493 127.492 182.843 120.157 181.864 112.088C177.463 122.602 172.695 131.099 167.56 137.578C162.426 143.936 157.291 148.582 152.156 151.516C147.021 154.45 142.131 155.917 137.485 155.917Z" fill="#27316F"/>
<path d="M8.8103 129.835V102.021H37.0516V119.993L47.963 130.904H76.4182L86.6878 120.849V5.95801H115.785V130.69L90.7528 155.722H34.4842L8.8103 129.835Z" fill="#30A3E5"/>
<path d="M33.4076 95.281L33.5664 77.593L40.3216 83.16L44.5986 97.68L33.748 115.922L12.3591 116.21L0.17247 97.824L4.602 83.205L11.4201 77.392L11.3967 94.807L21.8616 101.516L33.4076 95.281Z" fill="#30A3E5"/>
<path d="M86.9019 50.806H116.243L117.924 1.13901L83.5398 0.375L85.3736 50.806H86.9019Z" fill="#E0FAFF" stroke="#E0FAFF" stroke-width="0.305642"/>
<path d="M111.652 37.209L111.811 19.521L118.566 25.089L122.843 39.608L111.992 57.851L90.6033 58.139L78.4167 39.752L82.8462 25.134L89.6643 19.32L89.6409 36.735L100.106 43.445L111.652 37.209Z" fill="#30A3E5"/>
<path d="M116.702 101.237L115.021 108.419L114.562 110.711L114.104 113.309L113.798 117.436V120.798V124.313V128.592L114.366 132.565L116.243 131.342L116.702 101.237Z" fill="#27316F"/>
</svg>
